<svg xmlns="http://www.w3.org/2000/svg" viewBox="0 0 345.86 345.86"><defs><style>.a769d584-ee01-41e5-840d-2beb930eb221{fill:#f49819;}.af1ebd86-e45f-4628-aa8f-633e0d78ea17{fill:none;stroke:#fff;stroke-miterlimit:10;stroke-width:3px;}</style></defs><title>Iconos_Biptions</title><g id="eaa2cb62-f16e-4154-9fcd-74ef80b063bd" data-name="Capa 5"><path class="a769d584-ee01-41e5-840d-2beb930eb221" d="M202.9,123.06a26.21,26.21,0,1,1-16.73-33.15"/><circle class="a769d584-ee01-41e5-840d-2beb930eb221" cx="211.27" cy="98.19" r="26.22"/><path class="af1ebd86-e45f-4628-aa8f-633e0d78ea17" d="M160.49,81.74H69.66c-6.51,0-18.09,6.51-18.45,18.44V276c0,17.73,11.21,22.25,22.25,22.25H272.94c8.68,0,17.81-8.5,17.81-17.82V221.72"/><path class="af1ebd86-e45f-4628-aa8f-633e0d78ea17" d="M290.12,165.29V101.45c2-10-9.95-20.08-19.71-19.71H234.82"/><line class="af1ebd86-e45f-4628-aa8f-633e0d78ea17" x1="75.44" y1="105.61" x2="288.85" y2="105.61"/><path class="af1ebd86-e45f-4628-aa8f-633e0d78ea17" d="M304.05,166.74H246.9c-8.85,0-23.52,4.7-23.15,26.76s13.38,26.77,23.15,27.13,56.42,0,56.42,0Z"/><circle class="af1ebd86-e45f-4628-aa8f-633e0d78ea17" cx="253.33" cy="193.2" r="2.17"/><path class="af1ebd86-e45f-4628-aa8f-633e0d78ea17" d="M211.22,85.44a26.21,26.21,0,1,1-16.73-33.15"/><circle class="af1ebd86-e45f-4628-aa8f-633e0d78ea17" cx="219.59" cy="60.58" r="26.22"/></g></svg>