<svg xmlns="http://www.w3.org/2000/svg" viewBox="0 0 345.86 345.86"><defs><style>.ec319d2a-5ed6-470e-9a52-c06b2be67824{fill:none;stroke:#fff;stroke-miterlimit:10;stroke-width:3px;}.bfd2b4c3-6b4a-44e1-8bf8-db291694d486{fill:#f49819;}</style></defs><title>Iconos_Biptions</title><g id="f16371d0-3fce-499c-804c-ff7a2296f18c" data-name="Capa 5"><path class="ec319d2a-5ed6-470e-9a52-c06b2be67824" d="M140.34,290.34l26.94,26.06s15.51,12.3,27.23.29,2.63-24.3,2.63-24.3L166.4,261.94Z"/><path class="ec319d2a-5ed6-470e-9a52-c06b2be67824" d="M158.2,273.36l26.35,26.06S192.16,312,189.82,319"/><polyline class="ec319d2a-5ed6-470e-9a52-c06b2be67824" points="119.26 273.36 136.53 291.22 174.3 254.33 157.32 238.81 145.61 247.01 162.3 263.4"/><path class="ec319d2a-5ed6-470e-9a52-c06b2be67824" d="M132.3,95.05c-7.9,33.38-32.07,58.85-36.76,69.39s-30.16,33.38-30.16,33.38-33.38,34.55-2,64.71S122.77,269,122.77,269l20.79-19.91s23.42-24.6,38.06-29.28,33.09-19.47,49.78-21.52"/><line class="ec319d2a-5ed6-470e-9a52-c06b2be67824" x1="145.02" y1="144.24" x2="170.5" y2="120.52"/><line class="ec319d2a-5ed6-470e-9a52-c06b2be67824" x1="183.09" y1="180.84" x2="207.68" y2="155.66"/><line class="ec319d2a-5ed6-470e-9a52-c06b2be67824" x1="204.17" y1="73.38" x2="217.34" y2="24.19"/><line class="ec319d2a-5ed6-470e-9a52-c06b2be67824" x1="225.54" y1="91.24" x2="262.14" y2="47.91"/><line class="ec319d2a-5ed6-470e-9a52-c06b2be67824" x1="243.99" y1="111.15" x2="293.47" y2="87.73"/><line class="ec319d2a-5ed6-470e-9a52-c06b2be67824" x1="258.92" y1="136.92" x2="303.43" y2="136.33"/><ellipse class="bfd2b4c3-6b4a-44e1-8bf8-db291694d486" cx="201.9" cy="125.99" rx="15.66" ry="25.91" transform="translate(-32.4 167.67) rotate(-42.05)"/><ellipse class="ec319d2a-5ed6-470e-9a52-c06b2be67824" cx="192.05" cy="134.07" rx="15.66" ry="25.91" transform="translate(-40.36 163.16) rotate(-42.05)"/><ellipse class="ec319d2a-5ed6-470e-9a52-c06b2be67824" cx="191.68" cy="136.64" rx="38.57" ry="76.82" transform="translate(-41.48 169.03) rotate(-43.39)"/></g></svg>