<svg xmlns="http://www.w3.org/2000/svg" viewBox="0 0 345.86 345.86"><defs><style>.a9746309-8d95-4349-ae7e-010e0c5b4f01,.ad3ae5e5-c2b1-400b-8682-9e2070fe492e{fill:none;stroke:#fff;stroke-miterlimit:10;stroke-width:3px;}.af6b41c0-8fee-4eeb-a842-bddb7620361c{fill:#f49819;}.ad3ae5e5-c2b1-400b-8682-9e2070fe492e{stroke-linecap:round;}</style></defs><title>Iconos_Biptions</title><g id="aac8e6c9-2dd5-4701-b82d-147b74048272" data-name="Capa 5"><path class="a9746309-8d95-4349-ae7e-010e0c5b4f01" d="M77.39,227c-6.53,4.13-20.79,4.08-29.67,8.7-9.36,4.88-14.64,26.9-2.77,38s26.51,22.16,40,3.17S91.63,257.08,96,248s48.65-47.87,48.65-47.87,5.72,4.79,7.92,5.93c2.92,1.52,8.79,2.86,13.18-.16,2.63-1.82,4.42-8.74.27-13.68a59,59,0,0,0-6.33-6.33l37.18-36s5.54-7.12,11.08-2a64.17,64.17,0,0,1,8.31,9.1s3.82,5.78-.4,9.49c-3.89,3.43-1.25,5.48,1.12,7.85s5.41,7,9.17,3.63c4.6-4.12,44.31-42.73,44.31-42.73s4.43-4.19-1.19-9.1c-5.21-4.55-6.26-9.43-10.29-4.75-2.83,3.3-5.8,3.5-7.91.8-3.31-4.25-45.1-43.92-45.1-43.92s-3.36-4.92.4-9.1c2.67-3-2.28-6.42-2.72-6.77-2-1.58-5.34-6.18-13.5,1.63C181.45,72.34,153,98.83,153,98.83s-5.54,7.13-1.18,11.08,7.83,7.54,12.66,3.56c3.36-2.77,6.85.86,8.7,3.17s10,9,4.35,14.63c-6.12,6.2-37.19,35.61-37.19,35.61l-8.3-6.73s-5.15-6.33-11.48.4S118.93,172,118.93,172l6.73,7.12S91.76,217.93,77.39,227Z"/><path class="a9746309-8d95-4349-ae7e-010e0c5b4f01" d="M150.28,103.19c-3.4.53-10.68-5.65-12.36-9.1-1.23-2.53-.86-6.66,3.56-10.68,4.22-3.84,27-27.77,37.19-35.61,1.61-1.24,5.08-2.95,8.11-.39s9.94,7.07,8.35,13"/><path class="a9746309-8d95-4349-ae7e-010e0c5b4f01" d="M271.83,134.13c3.4-.54,8,3.79,10.55,6.64,3.1,3.43,1.65,9-1.75,13.14-3.64,4.39-26.93,27.83-37.19,35.6-1.57,1.2-4.95,3-7.91.4s-9.72-7.21-8.14-13.14"/><path class="af6b41c0-8fee-4eeb-a842-bddb7620361c" d="M224.56,293.87h96.13s-4-27.3-24.13-26.9-49.45,0-49.45,0S225.74,269.74,224.56,293.87Z"/><line class="ad3ae5e5-c2b1-400b-8682-9e2070fe492e" x1="227.33" y1="262.22" x2="285.48" y2="262.22"/><path class="a9746309-8d95-4349-ae7e-010e0c5b4f01" d="M210.32,302.57h96.13s-4-27.3-24.13-26.9-49.46,0-49.46,0S211.5,278.44,210.32,302.57Z"/></g></svg>